<svg width="796" height="588" viewBox="0 0 796 588" fill="none" xmlns="http://www.w3.org/2000/svg">
<path d="M781.606 160.696C784.494 171.668 790.558 178.164 795.467 181.774C787.959 191.879 780.451 201.985 772.798 212.09C764.568 205.882 751.14 192.745 745.22 170.513C731.359 189.136 717.209 207.615 702.914 225.949C686.598 246.882 670.138 267.815 653.389 288.315C636.64 308.959 619.602 329.314 602.276 349.525C584.949 369.736 567.334 389.658 549.141 409.292C531.092 428.925 512.466 448.126 493.262 466.893C474.059 485.661 454.278 503.851 433.197 521.174C412.116 538.354 390.025 554.811 364.901 568.237C352.339 574.878 338.911 580.797 323.75 584.551C316.098 586.283 308.012 587.438 299.493 587.438C295.161 587.438 290.83 586.86 286.354 586.138C281.878 585.272 277.546 583.973 273.214 582.241C268.883 580.364 264.84 578.199 261.086 575.6C257.62 573.001 254.155 570.547 251.123 567.227C247.946 564.339 245.203 560.73 242.46 557.265C241.305 555.389 240.005 553.657 238.85 551.78C238.273 550.914 237.695 549.903 237.262 548.892L235.818 546.005C232.064 538.209 229.465 530.125 228.31 522.185L227.732 519.153L227.443 516.266C227.299 514.245 227.01 512.368 226.866 510.347C226.721 506.449 226.432 502.551 226.721 498.798C227.01 483.64 229.32 469.348 232.641 455.633C235.818 441.918 239.861 428.637 244.337 415.788C253.289 389.947 263.974 365.116 274.947 340.863C285.921 316.465 297.472 292.645 308.878 268.825C320.285 245.005 331.547 221.329 342.088 197.509C352.484 173.689 362.446 149.725 369.522 125.76C372.987 113.778 375.875 101.796 377.174 90.2464L377.463 86.0597L377.607 83.8944V81.873C377.607 80.5738 377.752 79.1301 377.752 77.8309L377.607 73.9332C377.174 68.736 376.308 63.972 374.864 59.9298C373.276 55.8876 371.254 52.567 368.511 49.8241C367.789 49.1023 367.211 48.3807 366.345 47.8032L365.19 46.7926C364.757 46.5038 364.468 46.0706 363.89 45.7819C362.879 45.2044 361.869 44.4826 361.003 43.9051L357.826 42.3173C353.639 40.4406 349.018 38.9969 344.109 38.2751C339.2 37.5533 334.002 37.5533 328.515 37.842C317.686 38.7082 306.279 41.7397 295.017 45.7819C283.755 49.9685 272.492 55.3101 261.519 61.229C239.572 73.2113 218.347 87.7923 197.844 103.384C177.34 118.975 157.559 135.866 138.356 153.334C119.152 170.802 100.382 188.992 82.0442 207.615C72.9477 216.854 63.8512 226.382 54.8991 235.91C50.4231 240.674 46.0917 245.438 41.6156 250.347C37.284 255.111 32.8077 260.019 28.7648 264.783L0.320312 240.241C4.94074 234.899 9.27229 230.136 13.7483 225.083C18.2244 220.174 22.8448 215.121 27.3209 210.357C36.4173 200.541 45.6584 190.868 55.0436 181.34C73.8141 162.284 93.0179 143.661 112.944 125.615C132.869 107.57 153.372 90.1017 174.886 73.6442C196.4 57.1866 218.925 41.7398 243.326 28.3139C255.599 21.6731 268.305 15.6097 281.733 10.5569C295.306 5.64853 309.6 1.60658 325.194 0.451667C332.991 -0.125792 340.933 -0.125968 349.163 1.17331C357.393 2.47259 365.623 4.78243 373.276 8.39154C375.153 9.40209 377.174 10.2685 379.051 11.279L384.538 14.7436C385.404 15.3211 386.415 16.0431 387.281 16.7649L390.024 18.9303C391.901 20.2296 393.49 21.9618 395.078 23.6941C401.576 30.3349 406.629 38.5639 409.661 46.9371C412.694 55.3102 413.993 63.6832 414.571 71.6233L414.859 77.5423C414.859 79.5634 414.86 81.44 414.715 83.3168L414.571 86.2042L414.282 88.9472L413.849 94.5772C412.116 109.302 408.795 123.161 404.897 136.587C396.956 163.295 386.559 188.27 375.875 212.812C365.046 237.354 353.639 261.318 342.088 285.139C330.681 308.959 319.274 332.635 308.445 356.455C297.616 380.275 287.509 404.095 279.134 428.204C274.947 440.186 271.337 452.313 268.45 464.295C265.562 476.277 263.829 488.259 263.541 499.52C263.396 502.407 263.685 505.15 263.685 507.893C263.829 509.192 263.974 510.492 264.118 511.935L264.262 513.956L264.551 515.833C265.273 521.03 266.861 525.506 268.883 529.692L269.605 531.28C269.893 531.857 270.038 532.291 270.471 532.724C271.048 533.59 271.626 534.6 272.204 535.467C273.648 537.199 274.803 538.931 276.535 540.375C277.979 541.963 280 543.262 281.733 544.706C283.321 545.861 285.054 546.727 286.931 547.593C288.808 548.315 290.685 548.892 292.707 549.326C294.873 549.614 297.038 549.903 299.349 549.903C303.969 549.903 309.167 549.326 314.365 548.026C324.905 545.428 335.879 540.808 346.564 535.034C368.078 523.484 388.725 508.326 408.651 492.157C428.432 475.844 447.636 458.231 466.262 440.041C484.888 421.852 502.936 402.94 520.696 383.739C538.456 364.539 555.782 344.905 572.965 324.983C590.003 305.061 606.896 284.85 623.501 264.494C640.105 244.139 656.421 223.495 672.593 202.706C686.743 184.516 700.604 166.182 714.465 147.703C691.507 148.281 675.336 138.753 666.962 132.545C674.326 122.873 681.545 113.056 688.764 103.239C693.673 106.848 701.759 110.89 712.877 110.457C723.995 110.169 738.578 105.404 756.049 91.6897L785.504 112.478C778.863 134.566 778.718 149.725 781.606 160.696Z" fill="#00BD97"/>
</svg>
