<svg width="1107" height="102" viewBox="0 0 1107 102" fill="none" xmlns="http://www.w3.org/2000/svg">
<path d="M0 25.5405C0 11.4953 11.3859 0.109375 25.4311 0.109375V0.109375V25.5405H0V25.5405Z" fill="#00BD97"/>
<path d="M0 25.541H25.4311V50.9721H0V25.541Z" fill="#00BD97"/>
<path d="M0 50.9717H25.4311V76.4028H0V50.9717Z" fill="#00BD97"/>
<path d="M0 76.4023H25.4311V101.833V101.833C11.3859 101.833 0 90.4475 0 76.4023V76.4023Z" fill="#00BD97"/>
<path d="M25.4297 0.109375H50.8608V25.5405H25.4297V0.109375Z" fill="#00BD97"/>
<path d="M25.4297 50.9717H50.8608V50.9717C50.8608 65.0169 39.4749 76.4028 25.4297 76.4028V76.4028V50.9717Z" fill="#00BD97"/>
<path d="M50.8633 50.9717V50.9717C64.9085 50.9717 76.2944 62.3576 76.2944 76.4028V76.4028H50.8633V50.9717Z" fill="#00BD97"/>
<path d="M50.8633 25.541H76.2944V25.541C76.2944 39.5862 64.9085 50.9721 50.8633 50.9721V50.9721V25.541Z" fill="#00BD97"/>
<path d="M50.8633 0.109375V0.109375C64.9085 0.109375 76.2944 11.4953 76.2944 25.5405V25.5405H50.8633V0.109375Z" fill="#00BD97"/>
<path d="M50.8633 76.4023H76.2944V101.833V101.833C62.2492 101.833 50.8633 90.4475 50.8633 76.4023V76.4023Z" fill="#00BD97"/>
<path d="M1086.27 25.5947C1090.16 25.5947 1093.5 26.1285 1096.32 27.1961C1099.13 28.2636 1101.32 29.7437 1102.87 31.6362C1104.42 33.5287 1105.2 35.8094 1105.2 38.4783C1105.2 41.1472 1104.4 43.4765 1102.8 45.466C1101.24 47.4556 1099.13 48.8143 1096.46 49.5422C1099.67 50.173 1102.19 51.6531 1104.03 53.9823C1105.93 56.3115 1106.87 59.126 1106.87 62.4258C1106.87 65.3373 1106.07 67.8607 1104.47 69.9958C1102.87 72.1309 1100.59 73.7808 1097.63 74.9454C1094.72 76.0615 1091.25 76.6196 1087.22 76.6196H1062.04V25.5947H1086.27ZM1085.55 45.9028C1087.39 45.9028 1088.85 45.466 1089.91 44.5926C1090.98 43.6706 1091.51 42.4089 1091.51 40.8076C1091.51 39.2062 1090.98 37.9688 1089.91 37.0953C1088.85 36.2219 1087.39 35.8094 1085.55 35.8579H1075.36V45.9028H1085.55ZM1085.55 66.4292C1087.88 66.4292 1089.72 65.9439 1091.08 64.9734C1092.44 63.9543 1093.12 62.5714 1093.12 60.8244C1093.12 59.1746 1092.44 57.8644 1091.08 56.8938C1089.72 55.9233 1087.88 55.4623 1085.55 55.5109H1075.36V66.4292H1085.55Z" fill="#0A2621"/>
<path d="M1019.96 55.5836C1019.96 58.8834 1020.91 61.5038 1022.8 63.4448C1024.74 65.3858 1027.15 66.3564 1030.01 66.3564C1032.87 66.3564 1035.18 65.4101 1036.92 63.5176C1038.72 61.5766 1039.62 58.9319 1039.62 55.5836V25.5947H1052.94V55.5836C1052.94 60.048 1051.99 63.9301 1050.1 67.2298C1048.26 70.5296 1045.61 73.0772 1042.17 74.8726C1038.72 76.6681 1034.64 77.5658 1029.94 77.5658C1025.23 77.5658 1021.13 76.6681 1017.64 74.8726C1014.14 73.0772 1011.42 70.5296 1009.48 67.2298C1007.59 63.9301 1006.64 60.048 1006.64 55.5836V25.5947H1019.96V55.5836Z" fill="#0A2621"/>
<path d="M950.367 25.5947H963.688V46.4851H984.287V25.5947H997.607V76.6196H984.287V56.9666H963.688V76.6196H950.367V25.5947Z" fill="#0A2621"/>
<path d="M918.848 40.8071C917.053 39.691 915.136 38.7447 913.098 37.9683C911.108 37.1434 909.167 36.5125 907.275 36.0758C905.431 35.5905 903.805 35.3479 902.398 35.3479C900.797 35.3479 899.511 35.6633 898.54 36.2942C897.57 36.8765 897.084 37.7985 897.084 39.0601C897.084 40.3218 897.545 41.3651 898.467 42.19C899.438 42.9665 900.724 43.6216 902.325 44.1553C903.926 44.6891 905.698 45.2229 907.639 45.7567C909.58 46.2905 911.496 46.9213 913.389 47.6492C915.282 48.3771 917.028 49.3233 918.63 50.4879C920.231 51.604 921.517 53.0598 922.488 54.8553C923.458 56.6507 923.943 58.8829 923.943 61.5518C923.943 64.9971 923.021 67.9087 921.177 70.2865C919.333 72.6157 916.859 74.3869 913.753 75.6C910.647 76.7646 907.202 77.347 903.417 77.347C900.554 77.347 897.691 77.0315 894.828 76.4007C892.013 75.7213 889.32 74.7751 886.748 73.5619C884.225 72.3003 881.944 70.8202 879.906 69.1218L885.074 58.8586C886.821 60.4115 888.786 61.7702 890.97 62.9348C893.154 64.0994 895.362 65.0214 897.594 65.7008C899.826 66.3316 901.816 66.647 903.563 66.647C905.552 66.647 907.105 66.2831 908.221 65.5552C909.386 64.7788 909.968 63.6627 909.968 62.2069C909.968 60.9453 909.483 59.9262 908.512 59.1498C907.542 58.3249 906.256 57.6455 904.654 57.1117C903.053 56.5779 901.282 56.0684 899.341 55.5832C897.448 55.0494 895.532 54.4428 893.591 53.7634C891.698 53.0356 889.951 52.1378 888.35 51.0703C886.748 49.9542 885.462 48.5227 884.492 46.7757C883.57 45.0288 883.109 42.8451 883.109 40.2248C883.109 37.0706 883.934 34.3289 885.584 31.9996C887.282 29.6219 889.66 27.8022 892.717 26.5405C895.823 25.2303 899.414 24.5752 903.49 24.5752C907.226 24.5752 910.89 25.109 914.481 26.1765C918.072 27.2441 921.202 28.6271 923.871 30.3255L918.848 40.8071Z" fill="#0A2621"/>
<path d="M853.948 25.5947C860.742 25.5947 865.982 27.1718 869.67 30.326C873.358 33.4316 875.202 37.8232 875.202 43.5007C875.202 49.4694 873.358 54.1279 869.67 57.4762C865.982 60.7759 860.742 62.4258 853.948 62.4258H844.34V76.6196H831.02V25.5947H853.948ZM853.948 51.9442C856.714 51.9442 858.825 51.2649 860.281 49.9061C861.785 48.5474 862.537 46.5336 862.537 43.8647C862.537 41.2928 861.785 39.3518 860.281 38.0416C858.825 36.7314 856.714 36.0763 853.948 36.0763H844.34V51.9442H853.948ZM851.619 57.5489H864.575L876.731 76.6196H861.664L851.619 57.5489Z" fill="#0A2621"/>
<path d="M781.898 25.5947H822.151V36.0763H795.219V45.83H819.53V56.2387H795.219V66.138H822.878V76.6196H781.898V25.5947Z" fill="#0A2621"/>
<path d="M748.154 25.5947C752.182 25.5947 755.845 26.2256 759.145 27.4872C762.493 28.7004 765.356 30.4473 767.734 32.728C770.16 34.9602 772.029 37.6291 773.339 40.7348C774.649 43.8404 775.304 47.2857 775.304 51.0708C775.304 54.9043 774.625 58.3739 773.266 61.4795C771.956 64.5852 770.088 67.2784 767.661 69.5591C765.235 71.8398 762.324 73.5867 758.927 74.7999C755.53 76.013 751.769 76.6196 747.645 76.6196H726.172V25.5947H748.154ZM748.518 65.9924C750.459 65.9924 752.23 65.6527 753.832 64.9734C755.433 64.2455 756.816 63.2265 757.98 61.9163C759.194 60.6061 760.116 59.0532 760.746 57.2578C761.377 55.4138 761.693 53.4 761.693 51.2163C761.693 48.9841 761.353 46.9703 760.674 45.1749C759.994 43.3309 759.024 41.7538 757.762 40.4436C756.549 39.0849 755.093 38.0658 753.395 37.3865C751.745 36.6586 749.901 36.2947 747.863 36.2947H739.492V65.9924H748.518Z" fill="#0A2621"/>
<path d="M668.953 25.5947H680.672L707.386 61.2612L703.892 62.4258V25.5947H716.193V76.6196H704.547L677.833 41.0987L681.4 39.9341V76.6196H668.953V25.5947Z" fill="#0A2621"/>
<path d="M626.875 55.5836C626.875 58.8834 627.821 61.5038 629.714 63.4448C631.655 65.3858 634.057 66.3564 636.92 66.3564C639.783 66.3564 642.088 65.4101 643.835 63.5176C645.63 61.5766 646.528 58.9319 646.528 55.5836V25.5947H659.848V55.5836C659.848 60.048 658.902 63.9301 657.01 67.2298C655.166 70.5296 652.521 73.0772 649.076 74.8726C645.63 76.6681 641.554 77.5658 636.847 77.5658C632.14 77.5658 628.04 76.6681 624.546 74.8726C621.052 73.0772 618.334 70.5296 616.393 67.2298C614.501 63.9301 613.555 60.048 613.555 55.5836V25.5947H626.875V55.5836Z" fill="#0A2621"/>
<path d="M580.239 24.793C584.218 24.793 587.858 25.4481 591.158 26.7583C594.506 28.0685 597.417 29.9124 599.892 32.2902C602.415 34.668 604.357 37.4582 605.715 40.6609C607.122 43.8151 607.826 47.2604 607.826 50.9969C607.826 54.7819 607.122 58.3 605.715 61.5512C604.357 64.7539 602.415 67.5684 599.892 69.9947C597.417 72.3725 594.506 74.2407 591.158 75.5994C587.858 76.9096 584.218 77.5647 580.239 77.5647C576.309 77.5647 572.669 76.9096 569.321 75.5994C565.973 74.2407 563.037 72.3725 560.513 69.9947C558.039 67.5684 556.098 64.7539 554.69 61.5512C553.332 58.3 552.652 54.7819 552.652 50.9969C552.652 47.2604 553.332 43.7908 554.69 40.5881C556.098 37.3854 558.039 34.6194 560.513 32.2902C563.037 29.9124 565.973 28.0685 569.321 26.7583C572.669 25.4481 576.309 24.793 580.239 24.793ZM580.385 35.9296C578.492 35.9296 576.673 36.3178 574.926 37.0942C573.227 37.8221 571.723 38.8897 570.413 40.2969C569.151 41.6557 568.156 43.257 567.428 45.101C566.701 46.8964 566.337 48.886 566.337 51.0697C566.337 53.2048 566.701 55.2186 567.428 57.1111C568.156 58.9551 569.175 60.5807 570.486 61.988C571.796 63.3467 573.3 64.4142 574.998 65.1907C576.697 65.9671 578.492 66.3553 580.385 66.3553C582.277 66.3553 584.049 65.9671 585.698 65.1907C587.397 64.4142 588.877 63.3467 590.138 61.988C591.4 60.5807 592.371 58.9551 593.05 57.1111C593.778 55.2186 594.142 53.2048 594.142 51.0697C594.142 48.886 593.778 46.8964 593.05 45.101C592.371 43.257 591.4 41.6557 590.138 40.2969C588.877 38.8897 587.397 37.8221 585.698 37.0942C584.049 36.3178 582.277 35.9296 580.385 35.9296Z" fill="#0A2621"/>
<path d="M511.715 25.5947H549.856L549.783 36.0763H525.035V47.6497H547.891V58.0585H525.035V76.6196H511.715V25.5947Z" fill="#0A2621"/>
<path d="M442.98 25.5947H483.233V36.0763H456.301V45.83H480.612V56.2387H456.301V66.138H483.96V76.6196H442.98V25.5947Z" fill="#0A2621"/>
<path d="M401.961 25.5947H415.281V65.4101H436.899V76.6196H401.961V25.5947Z" fill="#0A2621"/>
<path d="M374.098 25.5947C377.98 25.5947 381.328 26.1285 384.143 27.1961C386.957 28.2636 389.141 29.7437 390.694 31.6362C392.247 33.5287 393.023 35.8094 393.023 38.4783C393.023 41.1472 392.222 43.4765 390.621 45.466C389.068 47.4556 386.957 48.8143 384.288 49.5422C387.491 50.173 390.014 51.6531 391.858 53.9823C393.751 56.3115 394.697 59.126 394.697 62.4258C394.697 65.3373 393.897 67.8607 392.295 69.9958C390.694 72.1309 388.413 73.7808 385.453 74.9454C382.541 76.0615 379.072 76.6196 375.044 76.6196H349.859V25.5947H374.098ZM373.37 45.9028C375.214 45.9028 376.67 45.466 377.737 44.5926C378.805 43.6706 379.339 42.4089 379.339 40.8076C379.339 39.2062 378.805 37.9688 377.737 37.0953C376.67 36.2219 375.214 35.8094 373.37 35.8579H363.18V45.9028H373.37ZM373.37 66.4292C375.699 66.4292 377.543 65.9439 378.902 64.9734C380.261 63.9543 380.94 62.5714 380.94 60.8244C380.94 59.1746 380.261 57.8644 378.902 56.8938C377.543 55.9233 375.699 55.4623 373.37 55.5109H363.18V66.4292H373.37Z" fill="#0A2621"/>
<path d="M310.155 25.5947H323.84L345.24 76.6196H331.046L316.634 38.915L301.93 76.6196H288.246L310.155 25.5947ZM301.348 57.4034H331.119V67.4482H301.348V57.4034Z" fill="#0A2621"/>
<path d="M281.805 40.8071C280.01 39.691 278.093 38.7447 276.055 37.9683C274.065 37.1434 272.124 36.5125 270.232 36.0758C268.388 35.5905 266.762 35.3479 265.355 35.3479C263.754 35.3479 262.468 35.6633 261.497 36.2942C260.527 36.8765 260.041 37.7985 260.041 39.0601C260.041 40.3218 260.502 41.3651 261.424 42.19C262.395 42.9665 263.681 43.6216 265.282 44.1553C266.884 44.6891 268.655 45.2229 270.596 45.7567C272.537 46.2905 274.454 46.9213 276.346 47.6492C278.239 48.3771 279.985 49.3233 281.587 50.4879C283.188 51.604 284.474 53.0598 285.445 54.8553C286.415 56.6507 286.9 58.8829 286.9 61.5518C286.9 64.9971 285.978 67.9087 284.134 70.2865C282.29 72.6157 279.816 74.3869 276.71 75.6C273.604 76.7646 270.159 77.347 266.374 77.347C263.511 77.347 260.648 77.0315 257.785 76.4007C254.97 75.7213 252.277 74.7751 249.705 73.5619C247.182 72.3003 244.901 70.8202 242.863 69.1218L248.031 58.8586C249.778 60.4115 251.743 61.7702 253.927 62.9348C256.111 64.0994 258.319 65.0214 260.551 65.7008C262.783 66.3316 264.773 66.647 266.52 66.647C268.509 66.647 270.062 66.2831 271.178 65.5552C272.343 64.7788 272.925 63.6627 272.925 62.2069C272.925 60.9453 272.44 59.9262 271.469 59.1498C270.499 58.3249 269.213 57.6455 267.611 57.1117C266.01 56.5779 264.239 56.0684 262.298 55.5832C260.405 55.0494 258.489 54.4428 256.548 53.7634C254.655 53.0356 252.908 52.1378 251.307 51.0703C249.705 49.9542 248.419 48.5227 247.449 46.7757C246.527 45.0288 246.066 42.8451 246.066 40.2248C246.066 37.0706 246.891 34.3289 248.541 31.9996C250.239 29.6219 252.617 27.8022 255.674 26.5405C258.78 25.2303 262.371 24.5752 266.447 24.5752C270.183 24.5752 273.847 25.109 277.438 26.1765C281.029 27.2441 284.159 28.6271 286.828 30.3255L281.805 40.8071Z" fill="#0A2621"/>
<path d="M223.402 25.5947H236.723V76.6196H223.402V25.5947Z" fill="#0A2621"/>
<path d="M183.702 25.5947H197.387L218.786 76.6196H204.593L190.181 38.915L175.477 76.6196H161.793L183.702 25.5947ZM174.895 57.4034H204.665V67.4482H174.895V57.4034Z" fill="#0A2621"/>
<path d="M137.362 25.5947C144.156 25.5947 149.396 27.1718 153.084 30.326C156.772 33.4316 158.616 37.8232 158.616 43.5007C158.616 49.4694 156.772 54.1279 153.084 57.4762C149.396 60.7759 144.156 62.4258 137.362 62.4258H127.754V76.6196H114.434V25.5947H137.362ZM137.362 51.9442C140.128 51.9442 142.239 51.2649 143.695 49.9061C145.199 48.5474 145.951 46.5336 145.951 43.8647C145.951 41.2928 145.199 39.3518 143.695 38.0416C142.239 36.7314 140.128 36.0763 137.362 36.0763H127.754V51.9442H137.362ZM135.033 57.5489H147.989L160.145 76.6196H145.078L135.033 57.5489Z" fill="#0A2621"/>
</svg>
